<svg width="33" height="33" viewBox="0 0 33 33" fill="none" xmlns="http://www.w3.org/2000/svg">
<path fill-rule="evenodd" clip-rule="evenodd" d="M0.5 16.4995C0.5 7.66296 7.66344 0.499512 16.5 0.499512C25.3366 0.499512 32.5 7.66296 32.5 16.4995C32.5 25.3361 25.3366 32.4995 16.5 32.4995C7.66344 32.4995 0.5 25.3361 0.5 16.4995Z" fill="#E5F4F2"/>
<path fill-rule="evenodd" clip-rule="evenodd" d="M16.5008 7.96631C14.1833 7.96631 13.8924 7.97644 12.9822 8.01786C12.0737 8.05947 11.4536 8.20329 10.9111 8.41431C10.3498 8.63227 9.87372 8.92383 9.3994 9.39832C8.92473 9.87264 8.63317 10.3487 8.4145 10.9098C8.20294 11.4526 8.05894 12.0728 8.01805 12.9809C7.97734 13.8912 7.96667 14.1822 7.96667 16.4997C7.96667 18.8173 7.97699 19.1072 8.01823 20.0175C8.06001 20.9259 8.20383 21.546 8.41468 22.0886C8.63282 22.6498 8.92437 23.1259 9.39887 23.6002C9.87301 24.0749 10.3491 24.3672 10.91 24.5851C11.4529 24.7962 12.0732 24.94 12.9815 24.9816C13.8917 25.023 14.1824 25.0332 16.4997 25.0332C18.8175 25.0332 19.1074 25.023 20.0176 24.9816C20.9261 24.94 21.5469 24.7962 22.0898 24.5851C22.6509 24.3672 23.1263 24.0749 23.6004 23.6002C24.0751 23.1259 24.3667 22.6498 24.5853 22.0888C24.7951 21.546 24.9391 20.9257 24.9818 20.0176C25.0227 19.1074 25.0333 18.8173 25.0333 16.4997C25.0333 14.1822 25.0227 13.8913 24.9818 12.9811C24.9391 12.0727 24.7951 11.4526 24.5853 10.91C24.3667 10.3487 24.0751 9.87264 23.6004 9.39832C23.1258 8.92365 22.6511 8.63209 22.0893 8.41431C21.5453 8.20329 20.9249 8.05947 20.0164 8.01786C19.1062 7.97644 18.8164 7.96631 16.4981 7.96631H16.5008ZM15.7353 9.50408C15.9625 9.50372 16.216 9.50408 16.5008 9.50408C18.7792 9.50408 19.0492 9.51226 19.949 9.55315C20.781 9.59119 21.2326 9.73021 21.5334 9.84702C21.9316 10.0017 22.2155 10.1866 22.514 10.4852C22.8127 10.7839 22.9976 11.0684 23.1526 11.4666C23.2694 11.767 23.4086 12.2186 23.4464 13.0506C23.4873 13.9502 23.4962 14.2204 23.4962 16.4978C23.4962 18.7751 23.4873 19.0453 23.4464 19.9449C23.4084 20.7769 23.2694 21.2285 23.1526 21.5289C22.9979 21.9271 22.8127 22.2107 22.514 22.5092C22.2153 22.8079 21.9318 22.9928 21.5334 23.1474C21.2329 23.2648 20.781 23.4034 19.949 23.4415C19.0494 23.4824 18.7792 23.4912 16.5008 23.4912C14.2222 23.4912 13.9521 23.4824 13.0526 23.4415C12.2205 23.4031 11.769 23.264 11.468 23.1472C11.0698 22.9926 10.7853 22.8077 10.4867 22.509C10.188 22.2103 10.0031 21.9266 9.84808 21.5282C9.73128 21.2278 9.59208 20.7762 9.55421 19.9442C9.51332 19.0446 9.50514 18.7744 9.50514 16.4956C9.50514 14.2168 9.51332 13.948 9.55421 13.0485C9.59226 12.2165 9.73128 11.7649 9.84808 11.4641C10.0027 11.0659 10.188 10.7814 10.4867 10.4828C10.7853 10.1841 11.0698 9.99919 11.468 9.84417C11.7688 9.72684 12.2205 9.58817 13.0526 9.54995C13.8398 9.51439 14.1448 9.50372 15.7353 9.50195V9.50408ZM21.0558 10.921C20.4905 10.921 20.0318 11.3791 20.0318 11.9446C20.0318 12.51 20.4905 12.9687 21.0558 12.9687C21.6212 12.9687 22.0799 12.51 22.0799 11.9446C22.0799 11.3793 21.6212 10.921 21.0558 10.921ZM16.5008 12.1174C14.0807 12.1174 12.1186 14.0796 12.1186 16.4997C12.1186 18.9198 14.0807 20.8811 16.5008 20.8811C18.9209 20.8811 20.8824 18.9198 20.8824 16.4997C20.8824 14.0796 18.9209 12.1174 16.5008 12.1174ZM16.5008 13.6552C18.0717 13.6552 19.3453 14.9287 19.3453 16.4997C19.3453 18.0706 18.0717 19.3442 16.5008 19.3442C14.9298 19.3442 13.6563 18.0706 13.6563 16.4997C13.6563 14.9287 14.9298 13.6552 16.5008 13.6552Z" fill="#2D2D2D"/>
</svg>
