<svg width="33" height="33" viewBox="0 0 33 33" fill="none" xmlns="http://www.w3.org/2000/svg">
<path fill-rule="evenodd" clip-rule="evenodd" d="M0.5 16.4995C0.5 7.66296 7.66344 0.499512 16.5 0.499512C25.3366 0.499512 32.5 7.66296 32.5 16.4995C32.5 25.3361 25.3366 32.4995 16.5 32.4995C7.66344 32.4995 0.5 25.3361 0.5 16.4995Z" fill="#E5F4F2"/>
<path fill-rule="evenodd" clip-rule="evenodd" d="M25.0333 16.4878C25.0333 17.0649 24.9746 17.6412 24.8592 18.2029C24.7467 18.7514 24.58 19.2898 24.3617 19.8044C24.1483 20.31 23.8837 20.7972 23.5745 21.2516C23.27 21.7031 22.9191 22.1267 22.5337 22.5128C22.1474 22.8972 21.7224 23.2471 21.2711 23.553C20.8152 23.86 20.3273 24.1242 19.8215 24.3386C19.306 24.5558 18.7664 24.7222 18.2184 24.8345C17.6559 24.9502 17.0776 25.0093 16.4996 25.0093C15.9213 25.0093 15.3429 24.9502 14.7812 24.8345C14.2324 24.7222 13.6928 24.5558 13.1778 24.3386C12.6719 24.1242 12.1836 23.86 11.7277 23.553C11.2764 23.2472 10.8514 22.8972 10.466 22.5128C10.0801 22.1267 9.72928 21.7031 9.42427 21.2516C9.11675 20.7972 8.85172 20.31 8.63755 19.8044C8.41918 19.2898 8.25211 18.7513 8.13919 18.2029C8.02503 17.6412 7.96667 17.0649 7.96667 16.4878C7.96667 15.9103 8.02499 15.3328 8.13922 14.7722C8.25215 14.2238 8.41922 13.6846 8.63759 13.1707C8.85175 12.6648 9.11678 12.1771 9.4243 11.7228C9.72931 11.2709 10.0802 10.8481 10.466 10.4616C10.8515 10.0771 11.2765 9.72803 11.7278 9.42263C12.1836 9.11429 12.672 8.85011 13.1778 8.63539C13.6929 8.41773 14.2324 8.2509 14.7812 8.13941C15.3429 8.02457 15.9213 7.96631 16.4997 7.96631C17.0776 7.96631 17.6559 8.02457 18.2185 8.13941C18.7664 8.25094 19.306 8.41776 19.8215 8.63539C20.3273 8.85007 20.8153 9.11429 21.2711 9.42263C21.7224 9.72803 22.1475 10.0771 22.5337 10.4616C22.9191 10.8481 23.27 11.2709 23.5746 11.7228C23.8837 12.1771 24.1483 12.6648 24.3617 13.1707C24.58 13.6846 24.7467 14.2238 24.8592 14.7722C24.9746 15.3328 25.0333 15.9103 25.0333 16.4878ZM13.3903 9.90569C11.3581 10.864 9.84131 12.7338 9.36836 14.9874C9.56048 14.9891 12.5973 15.0273 16.0962 14.099C14.8349 11.8613 13.4874 10.0351 13.3903 9.90569ZM16.7 15.2196C12.9477 16.3413 9.34711 16.2606 9.21795 16.2556C9.21585 16.3338 9.21211 16.4096 9.21211 16.4878C9.21211 18.3573 9.91839 20.0616 11.0793 21.3502C11.0768 21.3464 13.0711 17.8135 17.0038 16.5436C17.0988 16.512 17.1955 16.4836 17.2913 16.4562C17.1084 16.0426 16.9087 15.6282 16.7 15.2196ZM21.3124 11.0262C20.0293 9.89652 18.3447 9.21127 16.4996 9.21127C15.9075 9.21127 15.3329 9.28284 14.7824 9.41515C14.8916 9.56164 16.2604 11.3749 17.5067 13.66C20.2565 12.6307 21.2944 11.0528 21.3124 11.0262ZM17.788 17.662C17.7718 17.6674 17.7556 17.672 17.7397 17.6778C13.44 19.1746 12.0358 22.1911 12.0206 22.224C13.2578 23.1847 14.8096 23.7643 16.4996 23.7643C17.5088 23.7643 18.4701 23.5592 19.3448 23.1877C19.2368 22.5519 18.8135 20.3233 17.788 17.662ZM20.5719 22.5227C22.2082 21.4201 23.3703 19.6692 23.6945 17.6412C23.5445 17.5929 21.5057 16.9484 19.1535 17.3249C20.1093 19.948 20.4977 22.0842 20.5719 22.5227ZM18.0676 14.7444C18.2368 15.0914 18.4006 15.4446 18.5518 15.7996C18.6056 15.9269 18.6581 16.0518 18.7093 16.1766C21.2128 15.862 23.6792 16.3912 23.7846 16.4129C23.7679 14.6878 23.15 13.1046 22.1275 11.8651C22.1137 11.8846 20.9449 13.571 18.0676 14.7444Z" fill="#2D2D2D"/>
</svg>
