<svg width="27" height="26" viewBox="0 0 27 26" fill="none" xmlns="http://www.w3.org/2000/svg">
<path d="M14.0077 20.486L19.8226 24.1781C20.5725 24.6511 21.4956 23.9473 21.2763 23.082L19.5919 16.4594C19.5463 16.2758 19.5535 16.0831 19.6127 15.9035C19.6719 15.7239 19.7807 15.5646 19.9264 15.4441L25.1414 11.0944C25.8222 10.5291 25.476 9.38685 24.5876 9.32916L17.7804 8.89074C17.5947 8.87993 17.4161 8.81525 17.2666 8.70461C17.117 8.59397 17.0029 8.44215 16.9382 8.26771L14.3999 1.87588C14.3327 1.69116 14.2103 1.5316 14.0493 1.41884C13.8883 1.30609 13.6966 1.24561 13.5 1.24561C13.3034 1.24561 13.1117 1.30609 12.9507 1.41884C12.7897 1.5316 12.6673 1.69116 12.6001 1.87588L10.0618 8.26771C9.9971 8.44215 9.883 8.59397 9.73343 8.70461C9.58385 8.81525 9.40529 8.87993 9.21955 8.89074L2.41237 9.32916C1.52397 9.38685 1.17784 10.5291 1.85856 11.0944L7.07356 15.4441C7.21932 15.5646 7.32806 15.7239 7.38726 15.9035C7.44645 16.0831 7.4537 16.2758 7.40815 16.4594L5.85057 22.5974C5.58521 23.6358 6.69282 24.478 7.58121 23.9127L12.9923 20.486C13.1441 20.3895 13.3202 20.3383 13.5 20.3383C13.6798 20.3383 13.8559 20.3895 14.0077 20.486Z" fill="#F8D57E" stroke="#F8D57E" stroke-width="2" stroke-linecap="round" stroke-linejoin="round"/>
</svg>
